{"asset":{"version":"2.0","generator":"babylon.js glTF exporter for 3dsmax 2021 v20220308.1"},"scene":0,"scenes":[{"nodes":[0]}],"nodes":[{"mesh":0,"translation":[0.00814064,0,0.0589541979],"name":"Box001"}],"meshes":[{"primitives":[{"attributes":{"POSITION":1,"NORMAL":2,"TEXCOORD_0":3},"indices":0,"material":0}],"name":"Box001"}],"accessors":[{"bufferView":0,"componentType":5123,"count":36,"type":"SCALAR","name":"accessorIndices"},{"bufferView":1,"componentType":5126,"count":24,"max":[0.2962014,0.3862997,0.300922275],"min":[-0.2962014,0,-0.300922275],"type":"VEC3","name":"accessorPositions"},{"bufferView":1,"byteOffset":288,"componentType":5126,"count":24,"type":"VEC3","name":"accessorNormals"},{"bufferView":2,"componentType":5126,"count":24,"type":"VEC2","name":"accessorUVs"}],"bufferViews":[{"buffer":0,"byteLength":72,"name":"bufferViewScalar"},{"buffer":0,"byteOffset":72,"byteLength":576,"byteStride":12,"name":"bufferViewFloatVec3"},{"buffer":0,"byteOffset":648,"byteLength":192,"byteStride":8,"name":"bufferViewFloatVec2"}],"buffers":[{"uri":"data:application/octet-stream;base64,","byteLength":840}],"materials":[{"pbrMetallicRoughness":{"baseColorTexture":{"index":0},"metallicFactor":0,"roughnessFactor":0.450053632},"name":"Material #25"}],"textures":[{"sampler":0,"source":0,"name":"box.jpg"}],"images":[{"uri":"data:application/octet-stream;base64,"}],"samplers":[{"magFilter":9729,"minFilter":9987}]}